# xmcd
#
# Track frame offsets:
#	225
#	14550
#	29750
#	47780
#	61673
#	77019
#	91248
#	109630
#	122234
#	136136
#	149950
#	165715
#	179898
#	196675
#	211620
#	226500
#
# Disc length: 3258 seconds
#
# Revision: 1
# Processed by: cddbd v1.5.2PL0 Copyright (c) Steve Scherf et al.
# Submitted via: audiograbber 1.83.01
#
DISCID=dc0cb710
DTITLE=Various Artist - Sizzlin' Country Hits - Vol. 17
DYEAR=1995
DGENRE=Country
TTITLE0=Faith Hill - Let's Go To Vegas
TTITLE1=Tim McGraw - I Like It I Love It
TTITLE2=Rankin Family - You Feel The Same Way Too
TTITLE3=Tracy Lawrence - If The World Had A Front Porch
TTITLE4=Charlie Major - I Do It For The Money
TTITLE5=Kenny Chesney - All I Need To Know
TTITLE6=Collin Raye - One Boy One Girl
TTITLE7=Mark Collie - Three Words Two Hearts
TTITLE8=Joel Feeney - Life Is But A Dream
TTITLE9=John Michael Montgomery - No Man's Land
TTITLE10=Sawyer Brown - This Thing Called Wantin' And Havin' It All
TTITLE11=Terri Clark - Better Things To Do
TTITLE12=David Lee Murphy - Dust On The Bottle
TTITLE13=Neal McCoy - If I Was A Drinkin' Man
TTITLE14=Jeff Carson - Not On Your Love
TTITLE15=Ken Munshaw - Sun Comes Up
EXTD=
EXTT0=
EXTT1=
EXTT2=
EXTT3=
EXTT4=
EXTT5=
EXTT6=
EXTT7=
EXTT8=
EXTT9=
EXTT10=
EXTT11=
EXTT12=
EXTT13=
EXTT14=
EXTT15=
PLAYORDER=
